{
	"asset":{
		"generator":"Khronos glTF Blender I/O v3.6.27",
		"version":"2.0"
	},
	"extensionsUsed":[
		"KHR_materials_specular",
		"KHR_materials_ior"
	],
	"scene":0,
	"scenes":[
		{
			"name":"Scene",
			"nodes":[
				3
			]
		}
	],
	"nodes":[
		{
			"extras":{
				"Name":"skin_enchant_layer_1"
			},
			"mesh":0,
			"name":"skin_enchant_layer_1"
		},
		{
			"mesh":1,
			"name":"skin_enchant_layer_2"
		},
		{
			"mesh":2,
			"name":"skin_runes_1"
		},
		{
			"children":[
				0,
				1,
				2
			],
			"mesh":3,
			"name":"Dagger_03"
		}
	],
	"materials":[
		{
			"alphaMode":"BLEND",
			"doubleSided":true,
			"name":"Material.001",
			"pbrMetallicRoughness":{
				"baseColorFactor":[
					0.010892937891185284,
					0.6684479117393494,
					0.8000000715255737,
					0.4265734553337097
				],
				"metallicFactor":0,
				"roughnessFactor":0.5
			}
		},
		{
			"alphaMode":"BLEND",
			"doubleSided":true,
			"name":"Material.003",
			"pbrMetallicRoughness":{
				"baseColorFactor":[
					0.1087726280093193,
					0.024690372869372368,
					0.8000000715255737,
					0.4895104765892029
				],
				"metallicFactor":0,
				"roughnessFactor":0.5
			}
		},
		{
			"alphaMode":"BLEND",
			"doubleSided":true,
			"name":"Material.002",
			"pbrMetallicRoughness":{
				"baseColorFactor":[
					1,
					1,
					1,
					0.6503496170043945
				],
				"metallicFactor":0,
				"roughnessFactor":0.5
			}
		},
		{
			"doubleSided":true,
			"extensions":{
				"KHR_materials_specular":{
					"specularColorFactor":[
						0.237135764977738,
						0.237135764977738,
						0.237135764977738
					]
				},
				"KHR_materials_ior":{
					"ior":1.4500000476837158
				}
			},
			"name":"FantasyWeapon_01.007",
			"pbrMetallicRoughness":{
				"baseColorTexture":{
					"index":0
				},
				"metallicFactor":0,
				"roughnessFactor":0.7318339347839355
			}
		}
	],
	"meshes":[
		{
			"name":"Cube",
			"primitives":[
				{
					"attributes":{
						"POSITION":0,
						"NORMAL":1,
						"TEXCOORD_0":2
					},
					"indices":3,
					"material":0
				}
			]
		},
		{
			"name":"Plane.001",
			"primitives":[
				{
					"attributes":{
						"POSITION":4,
						"NORMAL":5,
						"TEXCOORD_0":6
					},
					"indices":7,
					"material":1
				}
			]
		},
		{
			"name":"Plane",
			"primitives":[
				{
					"attributes":{
						"POSITION":8,
						"NORMAL":9,
						"TEXCOORD_0":10
					},
					"indices":11,
					"material":2
				}
			]
		},
		{
			"name":"Mesh.011",
			"primitives":[
				{
					"attributes":{
						"POSITION":12,
						"NORMAL":13,
						"TEXCOORD_0":14,
						"TEXCOORD_1":15
					},
					"indices":16,
					"material":3
				}
			]
		}
	],
	"textures":[
		{
			"sampler":0,
			"source":0
		}
	],
	"images":[
		{
			"bufferView":17,
			"mimeType":"image/png",
			"name":"RPG_Weapons_Texture_01"
		}
	],
	"accessors":[
		{
			"bufferView":0,
			"componentType":5126,
			"count":158,
			"max":[
				0.04940640553832054,
				0.5056700706481934,
				0.017200464382767677
			],
			"min":[
				-0.04940640553832054,
				0.08905582129955292,
				-0.018110718578100204
			],
			"type":"VEC3"
		},
		{
			"bufferView":1,
			"componentType":5126,
			"count":158,
			"type":"VEC3"
		},
		{
			"bufferView":2,
			"componentType":5126,
			"count":158,
			"type":"VEC2"
		},
		{
			"bufferView":3,
			"componentType":5123,
			"count":276,
			"type":"SCALAR"
		},
		{
			"bufferView":4,
			"componentType":5126,
			"count":29,
			"max":[
				0.060275543481111526,
				0.5249679088592529,
				1.7552157061118123e-08
			],
			"min":[
				-0.060275543481111526,
				0.08751454949378967,
				-0.000455101573606953
			],
			"type":"VEC3"
		},
		{
			"bufferView":5,
			"componentType":5126,
			"count":29,
			"type":"VEC3"
		},
		{
			"bufferView":6,
			"componentType":5126,
			"count":29,
			"type":"VEC2"
		},
		{
			"bufferView":7,
			"componentType":5123,
			"count":84,
			"type":"SCALAR"
		},
		{
			"bufferView":8,
			"componentType":5126,
			"count":4,
			"max":[
				0.012182625010609627,
				0.31436869502067566,
				-0.01076496671885252
			],
			"min":[
				-0.013821771368384361,
				0.10669197142124176,
				-0.010764975100755692
			],
			"type":"VEC3"
		},
		{
			"bufferView":9,
			"componentType":5126,
			"count":4,
			"type":"VEC3"
		},
		{
			"bufferView":10,
			"componentType":5126,
			"count":4,
			"type":"VEC2"
		},
		{
			"bufferView":11,
			"componentType":5123,
			"count":6,
			"type":"SCALAR"
		},
		{
			"bufferView":12,
			"componentType":5126,
			"count":1878,
			"max":[
				0.08140207082033157,
				0.4825674295425415,
				0.018095264211297035
			],
			"min":[
				-0.08140207082033157,
				-0.10969878733158112,
				-0.018095290288329124
			],
			"type":"VEC3"
		},
		{
			"bufferView":13,
			"componentType":5126,
			"count":1878,
			"type":"VEC3"
		},
		{
			"bufferView":14,
			"componentType":5126,
			"count":1878,
			"type":"VEC2"
		},
		{
			"bufferView":15,
			"componentType":5126,
			"count":1878,
			"type":"VEC2"
		},
		{
			"bufferView":16,
			"componentType":5123,
			"count":1878,
			"type":"SCALAR"
		}
	],
	"bufferViews":[
		{
			"buffer":0,
			"byteLength":1896,
			"byteOffset":0,
			"target":34962
		},
		{
			"buffer":0,
			"byteLength":1896,
			"byteOffset":1896,
			"target":34962
		},
		{
			"buffer":0,
			"byteLength":1264,
			"byteOffset":3792,
			"target":34962
		},
		{
			"buffer":0,
			"byteLength":552,
			"byteOffset":5056,
			"target":34963
		},
		{
			"buffer":0,
			"byteLength":348,
			"byteOffset":5608,
			"target":34962
		},
		{
			"buffer":0,
			"byteLength":348,
			"byteOffset":5956,
			"target":34962
		},
		{
			"buffer":0,
			"byteLength":232,
			"byteOffset":6304,
			"target":34962
		},
		{
			"buffer":0,
			"byteLength":168,
			"byteOffset":6536,
			"target":34963
		},
		{
			"buffer":0,
			"byteLength":48,
			"byteOffset":6704,
			"target":34962
		},
		{
			"buffer":0,
			"byteLength":48,
			"byteOffset":6752,
			"target":34962
		},
		{
			"buffer":0,
			"byteLength":32,
			"byteOffset":6800,
			"target":34962
		},
		{
			"buffer":0,
			"byteLength":12,
			"byteOffset":6832,
			"target":34963
		},
		{
			"buffer":0,
			"byteLength":22536,
			"byteOffset":6844,
			"target":34962
		},
		{
			"buffer":0,
			"byteLength":22536,
			"byteOffset":29380,
			"target":34962
		},
		{
			"buffer":0,
			"byteLength":15024,
			"byteOffset":51916,
			"target":34962
		},
		{
			"buffer":0,
			"byteLength":15024,
			"byteOffset":66940,
			"target":34962
		},
		{
			"buffer":0,
			"byteLength":3756,
			"byteOffset":81964,
			"target":34963
		},
		{
			"buffer":0,
			"byteLength":15998,
			"byteOffset":85720
		}
	],
	"samplers":[
		{
			"magFilter":9729,
			"minFilter":9987
		}
	],
	"buffers":[
		{
			"byteLength":101720,
			"uri":"data:application/octet-stream;base64,"
		}
	]
}
