# Blender 3.5.0
# www.blender.org
o Eric_PlaneUpCenter
v -0.882599 -0.000000 0.991032
v 0.882599 -0.000000 0.991032
v -0.882599 0.000000 -0.969552
v 0.882599 0.000000 -0.969552
v 0.882599 -0.000000 0.010740
v -0.882599 -0.000000 0.010740
v -0.882599 0.000000 -0.479406
v 0.882599 0.000000 -0.479406
v 0.882599 -0.000000 0.500886
v -0.882599 -0.000000 0.500886
v -0.882599 0.000000 -0.724479
v 0.882599 0.000000 -0.724479
v 0.882599 -0.000000 0.745959
v -0.882599 -0.000000 0.745959
vn -0.0000 1.0000 -0.0000
vt 0.000000 0.000000
vt 1.000000 0.000000
vt 0.000000 1.000000
vt 1.000000 1.000000
vt 1.000000 0.500000
vt 0.000000 0.500000
vt 0.000000 0.750000
vt 1.000000 0.750000
vt 1.000000 0.250000
vt 0.000000 0.250000
vt 0.000000 0.875000
vt 1.000000 0.875000
vt 1.000000 0.125000
vt 0.000000 0.125000
s 1
f 2/2/1 13/13/1 14/14/1 1/1/1
f 8/8/1 7/7/1 6/6/1 5/5/1
f 12/12/1 11/11/1 7/7/1 8/8/1
f 5/5/1 6/6/1 10/10/1 9/9/1
f 4/4/1 3/3/1 11/11/1 12/12/1
f 9/9/1 10/10/1 14/14/1 13/13/1
