# Blender 3.5.0
# www.blender.org
o tri.001
v 0.303036 0.460142 0.469418
v 0.641303 0.050306 -0.133788
v 0.555403 0.278618 0.234957
v -0.677502 -0.310146 -0.706749
v -0.219013 -0.473069 -0.766547
v -0.362111 -0.188105 -0.630591
v 0.144219 -0.410100 0.231442
v 0.336030 -0.327213 0.674917
v 0.174420 -0.133026 0.437557
v 0.784660 -0.114760 -0.555412
v 0.359511 -0.331229 -0.668199
v 0.692392 -0.389782 -0.745189
v -0.835805 0.041273 0.368411
v -0.759616 0.504345 0.510153
v -1.010198 0.270373 0.561454
v 0.350414 0.429433 0.204355
v 0.731153 0.599941 -0.039265
v 0.629693 0.616395 0.255136
v 0.874629 0.224196 0.175141
v 0.993859 -0.002637 -0.242786
v 1.170188 0.165565 0.003754
v -0.532393 -0.544278 -0.082945
v -0.375303 -0.124801 0.116286
v -0.672442 -0.303206 0.123054
v -0.383887 0.491261 0.070785
v -0.372694 0.084285 -0.202303
v -0.595997 0.346344 -0.161969
v -0.230185 0.589012 0.417693
v 0.235696 0.724351 0.488191
v -0.060988 0.767044 0.662321
v -0.584945 0.177265 0.203729
v -0.543939 0.089821 0.081204
v -0.636042 0.102641 0.140558
v 0.351778 -0.119242 0.484163
v 0.527496 -0.036308 -0.165125
v 0.509192 -0.126100 0.196180
v -0.593658 0.430105 -0.460674
v -0.275768 0.277776 -0.676456
v -0.312418 0.375095 -0.403334
v -0.015215 -0.391078 -0.138636
v 0.140505 -0.666457 0.127328
v 0.079682 -0.380791 0.137586
v 0.611915 0.106357 -0.529603
v 0.218203 0.159593 -0.643515
v 0.467819 0.101104 -0.783804
v -0.665239 -0.017166 0.389052
v -0.477210 0.119996 0.730595
v -0.745375 0.022590 0.667274
v 0.392230 0.018407 0.306345
v 0.753524 0.172370 0.198432
v 0.664875 0.021336 0.394500
v 0.748440 -0.189982 0.070646
v 0.795726 -0.076466 -0.323939
v 0.972770 -0.181455 -0.116472
v -0.574800 -0.112538 -0.271747
v -0.338036 -0.052250 0.061611
v -0.624903 -0.082355 0.014589
v -0.164282 0.300456 0.403209
v -0.261090 0.254322 0.004061
v -0.363481 0.417207 0.224048
v -0.030042 0.101441 0.630129
v 0.374258 0.022722 0.664246
v 0.144298 0.004405 0.843668
v -0.420152 0.099242 0.329626
v -0.407575 0.120184 0.200384
v -0.479327 0.110983 0.258840
vn 0.1573 0.8556 -0.4931
vn 0.0425 0.4475 -0.8933
vn 0.8804 0.2175 -0.4214
vn -0.0837 0.5848 -0.8068
vn -0.4737 0.3281 -0.8173
vn -0.5139 0.8283 -0.2234
vn -0.1196 0.8579 -0.4997
vn -0.3194 0.5015 -0.8040
vn -0.4589 -0.5037 0.7319
vn -0.1711 0.8492 -0.4997
vn 0.2974 -0.7273 0.6186
vn 0.4678 0.8519 0.2354
vn 0.2412 0.9239 -0.2969
vn 0.9226 0.2081 -0.3247
vn 0.1655 0.9796 -0.1140
vn -0.2878 0.9330 -0.2162
vn -0.1852 0.8172 0.5458
vn 0.2093 0.9328 0.2934
vn -0.0843 0.9893 -0.1190
vn -0.6424 -0.7279 0.2399
vn 0.1580 0.9412 0.2987
vn -0.0040 -0.9871 -0.1603
vt 0.000000 0.500000
vt 0.500000 1.000000
vt 0.500000 0.500000
vt 0.000000 0.500000
vt 0.500000 1.000000
vt 0.500000 0.500000
vt 0.000000 0.500000
vt 0.500000 1.000000
vt 0.500000 0.500000
vt 0.000000 0.500000
vt 0.500000 1.000000
vt 0.500000 0.500000
vt 0.000000 0.500000
vt 0.500000 1.000000
vt 0.500000 0.500000
vt 0.000000 0.500000
vt 0.500000 1.000000
vt 0.500000 0.500000
vt 0.000000 0.500000
vt 0.500000 1.000000
vt 0.500000 0.500000
vt 0.000000 0.500000
vt 0.500000 1.000000
vt 0.500000 0.500000
vt 0.000000 0.500000
vt 0.500000 1.000000
vt 0.500000 0.500000
vt 0.000000 0.500000
vt 0.500000 1.000000
vt 0.500000 0.500000
vt 0.000000 0.500000
vt 0.500000 1.000000
vt 0.500000 0.500000
vt 0.000000 0.500000
vt 0.500000 1.000000
vt 0.500000 0.500000
vt 0.000000 0.500000
vt 0.500000 1.000000
vt 0.500000 0.500000
vt 0.000000 0.500000
vt 0.500000 1.000000
vt 0.500000 0.500000
vt 0.000000 0.500000
vt 0.500000 1.000000
vt 0.500000 0.500000
vt 0.000000 0.500000
vt 0.500000 1.000000
vt 0.500000 0.500000
vt 0.000000 0.500000
vt 0.500000 1.000000
vt 0.500000 0.500000
vt 0.000000 0.500000
vt 0.500000 1.000000
vt 0.500000 0.500000
vt 0.000000 0.500000
vt 0.500000 1.000000
vt 0.500000 0.500000
vt 0.000000 0.500000
vt 0.500000 1.000000
vt 0.500000 0.500000
vt 0.000000 0.500000
vt 0.500000 1.000000
vt 0.500000 0.500000
vt 0.000000 0.500000
vt 0.500000 1.000000
vt 0.500000 0.500000
s 0
f 1/1/1 3/3/1 2/2/1
f 4/4/2 6/6/2 5/5/2
f 7/7/3 9/9/3 8/8/3
f 10/10/4 12/12/4 11/11/4
f 13/13/5 15/15/5 14/14/5
f 16/16/6 18/18/6 17/17/6
f 19/19/7 21/21/7 20/20/7
f 22/22/8 24/24/8 23/23/8
f 25/25/9 27/27/9 26/26/9
f 28/28/10 30/30/10 29/29/10
f 31/31/11 33/33/11 32/32/11
f 34/34/12 36/36/12 35/35/12
f 37/37/13 39/39/13 38/38/13
f 40/40/14 42/42/14 41/41/14
f 43/43/15 45/45/15 44/44/15
f 46/46/16 48/48/16 47/47/16
f 49/49/17 51/51/17 50/50/17
f 52/52/18 54/54/18 53/53/18
f 55/55/19 57/57/19 56/56/19
f 58/58/20 60/60/20 59/59/20
f 61/61/21 63/63/21 62/62/21
f 64/64/22 66/66/22 65/65/22
